<svg role="img" viewBox="0 0 24 24" xmlns="http://www.w3.org/2000/svg" fill="currentColor">
  <title>GitHub icon</title>
  <path d="M12 0C5.37 0 0 5.37 0 12c0 5.3 3.438 9.8 8.207 11.387.6.113.793-.262.793-.577v-2.234c-3.338.726-4.033-1.415-4.033-1.415-.546-1.387-1.333-1.756-1.333-1.756-1.089-.745.083-.729.083-.729 1.205.084 1.84 1.236 1.84 1.236 1.07 1.834 2.807 1.304 3.492.997.108-.775.418-1.305.762-1.606-2.665-.304-5.466-1.334-5.466-5.93 0-1.31.468-2.382 1.236-3.222-.124-.303-.535-1.523.117-3.176 0 0 1.008-.322 3.3 1.23.957-.266 1.983-.399 3.003-.404 1.02.005 2.047.138 3.006.404 2.289-1.552 3.295-1.23 3.295-1.23.653 1.653.242 2.873.12 3.176.77.84 1.235 1.913 1.235 3.222 0 4.61-2.804 5.624-5.475 5.921.43.372.823 1.104.823 2.226v3.293c0 .319.192.694.8.576C20.565 21.796 24 17.297 24 12c0-6.63-5.37-12-12-12z"/>
</svg>
